<mxfile host="app.diagrams.net" modified="2020-11-11T22:53:02.346Z" agent="5.0 (Windows NT 10.0; Win64; x64) AppleWebKit/537.36 (KHTML, like Gecko) Chrome/85.0.4183.121 Safari/537.36 OPR/71.0.3770.323" etag="OAAUA3Jt9jyLijh_VP6T" version="13.9.6" type="github">
  <diagram id="UcNpb9UolAfxYoD14A7P" name="Page-1">
    <mxGraphModel dx="2302" dy="1325" grid="1" gridSize="10" guides="1" tooltips="1" connect="1" arrows="1" fold="1" page="1" pageScale="1" pageWidth="1169" pageHeight="827" math="0" shadow="0">
      <root>
        <mxCell id="0" />
        <mxCell id="1" parent="0" />
        <mxCell id="Zvegbd1FHatC42yTFDXX-4" style="edgeStyle=orthogonalEdgeStyle;rounded=0;orthogonalLoop=1;jettySize=auto;html=1;fontSize=14;" edge="1" parent="1" source="Zvegbd1FHatC42yTFDXX-1" target="Zvegbd1FHatC42yTFDXX-3">
          <mxGeometry relative="1" as="geometry" />
        </mxCell>
        <mxCell id="Zvegbd1FHatC42yTFDXX-1" value="&lt;b&gt;Início&lt;/b&gt;" style="ellipse;whiteSpace=wrap;html=1;fillColor=#cdeb8b;strokeColor=#36393d;" vertex="1" parent="1">
          <mxGeometry x="367" y="110" width="94" height="62.67" as="geometry" />
        </mxCell>
        <mxCell id="Zvegbd1FHatC42yTFDXX-2" value="&lt;span style=&quot;color: rgba(0, 0, 0, 0.87); font-family: roboto, helvetica, arial, sans-serif; font-size: 14px; font-style: normal; letter-spacing: normal; text-align: left; text-indent: 0px; text-transform: none; word-spacing: 0px; display: inline; float: none;&quot;&gt;6 fios :&#xa;Se não há fios amarelos e o último dígito do &quot;serial number&quot; é ímpar, corte o terceiro fio.&#xa;Caso contrário, se há exatamente um fio amarelo e há mais de um fio branco, corte o quarto fio.&#xa;Caso contrário, se não há fios vermelhos, corte o último fio.&#xa;Caso contrário, corte o quarto fio.&lt;/span&gt;" style="text;whiteSpace=wrap;html=1;fillColor=#fff2cc;strokeColor=#d6b656;fontStyle=1;fontSize=14;" vertex="1" parent="1">
          <mxGeometry x="2" width="820" height="100" as="geometry" />
        </mxCell>
        <mxCell id="Zvegbd1FHatC42yTFDXX-6" value="Sim" style="edgeStyle=orthogonalEdgeStyle;rounded=0;orthogonalLoop=1;jettySize=auto;html=1;fontSize=14;" edge="1" parent="1" source="Zvegbd1FHatC42yTFDXX-3">
          <mxGeometry relative="1" as="geometry">
            <mxPoint x="560" y="320" as="targetPoint" />
          </mxGeometry>
        </mxCell>
        <mxCell id="Zvegbd1FHatC42yTFDXX-7" value="Não" style="edgeStyle=orthogonalEdgeStyle;rounded=0;orthogonalLoop=1;jettySize=auto;html=1;exitX=0;exitY=0.5;exitDx=0;exitDy=0;fontSize=14;" edge="1" parent="1" source="Zvegbd1FHatC42yTFDXX-3">
          <mxGeometry relative="1" as="geometry">
            <mxPoint x="280" y="320" as="targetPoint" />
          </mxGeometry>
        </mxCell>
        <mxCell id="Zvegbd1FHatC42yTFDXX-3" value="Há fios&lt;br&gt;Amarelos?" style="rhombus;whiteSpace=wrap;html=1;fontSize=14;fillColor=#ffff88;strokeColor=#36393d;" vertex="1" parent="1">
          <mxGeometry x="359" y="190" width="110" height="110" as="geometry" />
        </mxCell>
        <mxCell id="Zvegbd1FHatC42yTFDXX-9" value="Sim" style="edgeStyle=orthogonalEdgeStyle;rounded=0;orthogonalLoop=1;jettySize=auto;html=1;exitX=0;exitY=0.5;exitDx=0;exitDy=0;fontSize=12;entryX=1;entryY=0.5;entryDx=0;entryDy=0;" edge="1" parent="1" source="Zvegbd1FHatC42yTFDXX-8" target="Zvegbd1FHatC42yTFDXX-10">
          <mxGeometry relative="1" as="geometry">
            <mxPoint x="62" y="340" as="targetPoint" />
          </mxGeometry>
        </mxCell>
        <mxCell id="Zvegbd1FHatC42yTFDXX-14" value="Não" style="edgeStyle=orthogonalEdgeStyle;rounded=0;orthogonalLoop=1;jettySize=auto;html=1;fontSize=12;" edge="1" parent="1" source="Zvegbd1FHatC42yTFDXX-8" target="Zvegbd1FHatC42yTFDXX-11">
          <mxGeometry relative="1" as="geometry" />
        </mxCell>
        <mxCell id="Zvegbd1FHatC42yTFDXX-8" value="O último Dígito&lt;br&gt;do &quot;serial number&quot;&lt;br&gt;é impar?" style="rhombus;whiteSpace=wrap;html=1;fontSize=12;fillColor=#ffff88;strokeColor=#36393d;" vertex="1" parent="1">
          <mxGeometry x="213" y="320" width="135" height="100" as="geometry" />
        </mxCell>
        <mxCell id="Zvegbd1FHatC42yTFDXX-30" style="edgeStyle=orthogonalEdgeStyle;rounded=0;orthogonalLoop=1;jettySize=auto;html=1;entryX=0;entryY=0.5;entryDx=0;entryDy=0;fontSize=12;" edge="1" parent="1" source="Zvegbd1FHatC42yTFDXX-10" target="Zvegbd1FHatC42yTFDXX-19">
          <mxGeometry relative="1" as="geometry">
            <Array as="points">
              <mxPoint x="62" y="881" />
            </Array>
          </mxGeometry>
        </mxCell>
        <mxCell id="Zvegbd1FHatC42yTFDXX-10" value="Corte o terceiro fio" style="rounded=1;whiteSpace=wrap;html=1;fontSize=12;fillColor=#cce5ff;strokeColor=#36393d;" vertex="1" parent="1">
          <mxGeometry x="2" y="340" width="120" height="60" as="geometry" />
        </mxCell>
        <mxCell id="Zvegbd1FHatC42yTFDXX-12" value="Sim" style="edgeStyle=orthogonalEdgeStyle;rounded=0;orthogonalLoop=1;jettySize=auto;html=1;fontSize=12;" edge="1" parent="1" source="Zvegbd1FHatC42yTFDXX-11">
          <mxGeometry relative="1" as="geometry">
            <mxPoint x="680" y="370" as="targetPoint" />
          </mxGeometry>
        </mxCell>
        <mxCell id="Zvegbd1FHatC42yTFDXX-18" value="Não" style="edgeStyle=orthogonalEdgeStyle;rounded=0;orthogonalLoop=1;jettySize=auto;html=1;exitX=0.5;exitY=1;exitDx=0;exitDy=0;fontSize=12;" edge="1" parent="1" source="Zvegbd1FHatC42yTFDXX-11">
          <mxGeometry relative="1" as="geometry">
            <mxPoint x="680" y="540" as="targetPoint" />
          </mxGeometry>
        </mxCell>
        <mxCell id="Zvegbd1FHatC42yTFDXX-11" value="Há exatamente&lt;br&gt;um fio&amp;nbsp;&lt;br&gt;Amarelo?" style="rhombus;whiteSpace=wrap;html=1;fontSize=12;fillColor=#ffff88;strokeColor=#36393d;" vertex="1" parent="1">
          <mxGeometry x="493" y="320" width="135" height="100" as="geometry" />
        </mxCell>
        <mxCell id="Zvegbd1FHatC42yTFDXX-15" value="Sim" style="edgeStyle=orthogonalEdgeStyle;rounded=0;orthogonalLoop=1;jettySize=auto;html=1;fontSize=12;entryX=0;entryY=0.5;entryDx=0;entryDy=0;" edge="1" parent="1" source="Zvegbd1FHatC42yTFDXX-13" target="Zvegbd1FHatC42yTFDXX-16">
          <mxGeometry relative="1" as="geometry">
            <mxPoint x="850.0000000000002" y="370" as="targetPoint" />
          </mxGeometry>
        </mxCell>
        <mxCell id="Zvegbd1FHatC42yTFDXX-17" value="" style="edgeStyle=orthogonalEdgeStyle;rounded=0;orthogonalLoop=1;jettySize=auto;html=1;fontSize=12;" edge="1" parent="1" source="Zvegbd1FHatC42yTFDXX-13">
          <mxGeometry relative="1" as="geometry">
            <mxPoint x="680" y="540" as="targetPoint" />
          </mxGeometry>
        </mxCell>
        <mxCell id="Zvegbd1FHatC42yTFDXX-13" value="Há mais de um&lt;br&gt;fio branco?" style="rhombus;whiteSpace=wrap;html=1;fontSize=12;fillColor=#ffff88;strokeColor=#36393d;" vertex="1" parent="1">
          <mxGeometry x="680" y="320" width="135" height="100" as="geometry" />
        </mxCell>
        <mxCell id="Zvegbd1FHatC42yTFDXX-32" style="edgeStyle=orthogonalEdgeStyle;rounded=0;orthogonalLoop=1;jettySize=auto;html=1;entryX=0.5;entryY=1;entryDx=0;entryDy=0;fontSize=12;" edge="1" parent="1" source="Zvegbd1FHatC42yTFDXX-16" target="Zvegbd1FHatC42yTFDXX-19">
          <mxGeometry relative="1" as="geometry">
            <Array as="points">
              <mxPoint x="1040" y="370" />
              <mxPoint x="1040" y="933" />
              <mxPoint x="477" y="933" />
            </Array>
          </mxGeometry>
        </mxCell>
        <mxCell id="Zvegbd1FHatC42yTFDXX-16" value="Corte o quarto fio" style="rounded=1;whiteSpace=wrap;html=1;fontSize=12;fillColor=#cce5ff;strokeColor=#36393d;" vertex="1" parent="1">
          <mxGeometry x="880" y="340" width="120" height="60" as="geometry" />
        </mxCell>
        <mxCell id="Zvegbd1FHatC42yTFDXX-19" value="&lt;b&gt;Fim&lt;/b&gt;" style="ellipse;whiteSpace=wrap;html=1;fillColor=#cdeb8b;strokeColor=#36393d;" vertex="1" parent="1">
          <mxGeometry x="430" y="850" width="94" height="62.67" as="geometry" />
        </mxCell>
        <mxCell id="Zvegbd1FHatC42yTFDXX-25" value="Sim" style="edgeStyle=orthogonalEdgeStyle;rounded=0;orthogonalLoop=1;jettySize=auto;html=1;entryX=0.5;entryY=1;entryDx=0;entryDy=0;fontSize=12;" edge="1" parent="1" source="Zvegbd1FHatC42yTFDXX-21" target="Zvegbd1FHatC42yTFDXX-16">
          <mxGeometry x="0.0105" relative="1" as="geometry">
            <mxPoint as="offset" />
          </mxGeometry>
        </mxCell>
        <mxCell id="Zvegbd1FHatC42yTFDXX-26" value="Não" style="edgeStyle=orthogonalEdgeStyle;rounded=0;orthogonalLoop=1;jettySize=auto;html=1;fontSize=12;" edge="1" parent="1" source="Zvegbd1FHatC42yTFDXX-21">
          <mxGeometry relative="1" as="geometry">
            <mxPoint x="679.5" y="730" as="targetPoint" />
          </mxGeometry>
        </mxCell>
        <mxCell id="Zvegbd1FHatC42yTFDXX-21" value="Há fios vermelhos?" style="rhombus;whiteSpace=wrap;html=1;fontSize=12;fillColor=#ffff88;strokeColor=#36393d;" vertex="1" parent="1">
          <mxGeometry x="612" y="539" width="135" height="100" as="geometry" />
        </mxCell>
        <mxCell id="Zvegbd1FHatC42yTFDXX-31" style="edgeStyle=orthogonalEdgeStyle;rounded=0;orthogonalLoop=1;jettySize=auto;html=1;entryX=1;entryY=0.5;entryDx=0;entryDy=0;fontSize=12;" edge="1" parent="1" source="Zvegbd1FHatC42yTFDXX-27" target="Zvegbd1FHatC42yTFDXX-19">
          <mxGeometry relative="1" as="geometry">
            <Array as="points">
              <mxPoint x="680" y="881" />
            </Array>
          </mxGeometry>
        </mxCell>
        <mxCell id="Zvegbd1FHatC42yTFDXX-27" value="Corte o último fio" style="rounded=1;whiteSpace=wrap;html=1;fontSize=12;fillColor=#cce5ff;strokeColor=#36393d;" vertex="1" parent="1">
          <mxGeometry x="619.5" y="730" width="120" height="60" as="geometry" />
        </mxCell>
      </root>
    </mxGraphModel>
  </diagram>
</mxfile>
